<mxfile host="app.diagrams.net" modified="2024-03-28T20:21:24.748Z" agent="Mozilla/5.0 (Windows NT 10.0; Win64; x64; rv:123.0) Gecko/20100101 Firefox/123.0" etag="7A5ovQBnOZA4E9sxdI-D" version="24.1.0" type="device">
  <diagram name="Page-1" id="13e1069c-82ec-6db2-03f1-153e76fe0fe0">
    <mxGraphModel dx="1366" dy="710" grid="1" gridSize="10" guides="1" tooltips="1" connect="1" arrows="1" fold="1" page="1" pageScale="1" pageWidth="1100" pageHeight="850" background="none" math="0" shadow="0">
      <root>
        <mxCell id="0" />
        <mxCell id="1" parent="0" />
        <mxCell id="7baba1c4bc27f4b0-2" value="Broker" style="shape=umlLifeline;perimeter=lifelinePerimeter;container=1;collapsible=0;recursiveResize=0;outlineConnect=0;rounded=1;shadow=0;comic=0;labelBackgroundColor=none;strokeWidth=1;fontFamily=Verdana;fontSize=12;align=center;fontStyle=1" parent="1" vertex="1">
          <mxGeometry x="160" y="80" width="100" height="480" as="geometry" />
        </mxCell>
        <mxCell id="7baba1c4bc27f4b0-10" value="" style="html=1;points=[];perimeter=orthogonalPerimeter;rounded=0;shadow=0;comic=0;labelBackgroundColor=none;strokeWidth=1;fontFamily=Verdana;fontSize=12;align=center;" parent="7baba1c4bc27f4b0-2" vertex="1">
          <mxGeometry x="45" y="200" width="10" height="110" as="geometry" />
        </mxCell>
        <mxCell id="AQsl2rZMWKQkd6-zd7d1-16" value="" style="html=1;points=[];perimeter=orthogonalPerimeter;rounded=0;shadow=0;comic=0;labelBackgroundColor=none;strokeWidth=1;fontFamily=Verdana;fontSize=12;align=center;" vertex="1" parent="7baba1c4bc27f4b0-2">
          <mxGeometry x="45" y="370" width="10" height="40" as="geometry" />
        </mxCell>
        <mxCell id="AQsl2rZMWKQkd6-zd7d1-7" value="" style="edgeStyle=orthogonalEdgeStyle;rounded=0;orthogonalLoop=1;jettySize=auto;dashed=1;labelBackgroundColor=none;fontSize=13;" edge="1" parent="1" source="7baba1c4bc27f4b0-3" target="7baba1c4bc27f4b0-2">
          <mxGeometry relative="1" as="geometry">
            <Array as="points">
              <mxPoint x="280" y="160" />
              <mxPoint x="280" y="160" />
            </Array>
          </mxGeometry>
        </mxCell>
        <mxCell id="AQsl2rZMWKQkd6-zd7d1-8" value="subscribe&#xa;&#xa;-t &#39;t2&#39;&#xa;" style="edgeLabel;align=center;verticalAlign=middle;resizable=0;points=[];labelBackgroundColor=none;fontSize=13;" vertex="1" connectable="0" parent="AQsl2rZMWKQkd6-zd7d1-7">
          <mxGeometry x="-0.1328" y="-1" relative="1" as="geometry">
            <mxPoint x="-9" y="15" as="offset" />
          </mxGeometry>
        </mxCell>
        <mxCell id="7baba1c4bc27f4b0-3" value="Cliente 2" style="shape=umlLifeline;perimeter=lifelinePerimeter;container=1;collapsible=0;recursiveResize=0;outlineConnect=0;rounded=1;shadow=0;comic=0;labelBackgroundColor=none;strokeWidth=1;fontFamily=Verdana;fontSize=12;align=center;fontStyle=1" parent="1" vertex="1">
          <mxGeometry x="300" y="80" width="100" height="480" as="geometry" />
        </mxCell>
        <mxCell id="7baba1c4bc27f4b0-13" value="" style="html=1;points=[];perimeter=orthogonalPerimeter;rounded=0;shadow=0;comic=0;labelBackgroundColor=none;strokeWidth=1;fontFamily=Verdana;fontSize=12;align=center;" parent="7baba1c4bc27f4b0-3" vertex="1">
          <mxGeometry x="45" y="230" width="10" height="20" as="geometry" />
        </mxCell>
        <mxCell id="7baba1c4bc27f4b0-5" value="Cliente 1" style="shape=umlLifeline;perimeter=lifelinePerimeter;container=1;collapsible=0;recursiveResize=0;outlineConnect=0;rounded=1;shadow=0;comic=0;labelBackgroundColor=none;strokeWidth=1;fontFamily=Verdana;fontSize=12;align=center;fontStyle=1" parent="1" vertex="1">
          <mxGeometry x="680" y="80" width="100" height="480" as="geometry" />
        </mxCell>
        <mxCell id="7baba1c4bc27f4b0-19" value="" style="html=1;points=[];perimeter=orthogonalPerimeter;rounded=0;shadow=0;comic=0;labelBackgroundColor=none;strokeWidth=1;fontFamily=Verdana;fontSize=12;align=center;" parent="7baba1c4bc27f4b0-5" vertex="1">
          <mxGeometry x="45" y="80" width="10" height="110" as="geometry" />
        </mxCell>
        <mxCell id="AQsl2rZMWKQkd6-zd7d1-40" value="" style="html=1;points=[];perimeter=orthogonalPerimeter;rounded=0;shadow=0;comic=0;labelBackgroundColor=none;strokeWidth=1;fontFamily=Verdana;fontSize=12;align=center;" vertex="1" parent="7baba1c4bc27f4b0-5">
          <mxGeometry x="45" y="210" width="10" height="110" as="geometry" />
        </mxCell>
        <mxCell id="AQsl2rZMWKQkd6-zd7d1-45" value="" style="html=1;points=[];perimeter=orthogonalPerimeter;rounded=0;shadow=0;comic=0;labelBackgroundColor=none;strokeWidth=1;fontFamily=Verdana;fontSize=12;align=center;" vertex="1" parent="7baba1c4bc27f4b0-5">
          <mxGeometry x="45" y="360" width="10" height="110" as="geometry" />
        </mxCell>
        <mxCell id="7baba1c4bc27f4b0-6" value="Cliente 2" style="shape=umlLifeline;perimeter=lifelinePerimeter;container=1;collapsible=0;recursiveResize=0;outlineConnect=0;rounded=1;shadow=0;comic=0;labelBackgroundColor=none;strokeWidth=1;fontFamily=Verdana;fontSize=12;align=center;html=1;fontStyle=1" parent="1" vertex="1">
          <mxGeometry x="820" y="80" width="100" height="480" as="geometry" />
        </mxCell>
        <mxCell id="AQsl2rZMWKQkd6-zd7d1-29" value="" style="html=1;points=[];perimeter=orthogonalPerimeter;rounded=0;shadow=0;comic=0;labelBackgroundColor=none;strokeWidth=1;fontFamily=Verdana;fontSize=12;align=center;" vertex="1" parent="7baba1c4bc27f4b0-6">
          <mxGeometry x="45" y="80" width="10" height="110" as="geometry" />
        </mxCell>
        <mxCell id="7baba1c4bc27f4b0-7" value="Cliente 3" style="shape=umlLifeline;perimeter=lifelinePerimeter;container=1;collapsible=0;recursiveResize=0;outlineConnect=0;rounded=1;shadow=0;comic=0;labelBackgroundColor=none;strokeWidth=1;fontFamily=Verdana;fontSize=12;align=center;fontStyle=1" parent="1" vertex="1">
          <mxGeometry x="960" y="80" width="100" height="480" as="geometry" />
        </mxCell>
        <mxCell id="AQsl2rZMWKQkd6-zd7d1-39" value="" style="html=1;points=[];perimeter=orthogonalPerimeter;rounded=0;shadow=0;comic=0;labelBackgroundColor=none;strokeWidth=1;fontFamily=Verdana;fontSize=12;align=center;" vertex="1" parent="7baba1c4bc27f4b0-7">
          <mxGeometry x="45" y="200" width="10" height="110" as="geometry" />
        </mxCell>
        <mxCell id="AQsl2rZMWKQkd6-zd7d1-46" value="" style="html=1;points=[];perimeter=orthogonalPerimeter;rounded=0;shadow=0;comic=0;labelBackgroundColor=none;strokeWidth=1;fontFamily=Verdana;fontSize=12;align=center;" vertex="1" parent="7baba1c4bc27f4b0-7">
          <mxGeometry x="45" y="360" width="10" height="110" as="geometry" />
        </mxCell>
        <mxCell id="AQsl2rZMWKQkd6-zd7d1-3" style="edgeStyle=orthogonalEdgeStyle;rounded=0;orthogonalLoop=1;jettySize=auto;html=1;dashed=1;" edge="1" parent="1" source="7baba1c4bc27f4b0-8" target="7baba1c4bc27f4b0-2">
          <mxGeometry relative="1" as="geometry">
            <Array as="points">
              <mxPoint x="140" y="190" />
              <mxPoint x="140" y="190" />
            </Array>
          </mxGeometry>
        </mxCell>
        <mxCell id="AQsl2rZMWKQkd6-zd7d1-4" value="subscribeÂ &#xa;&#xa;-t &#39;t1&#39;" style="edgeLabel;align=center;verticalAlign=middle;resizable=0;points=[];fontStyle=0;fontSize=13;labelBackgroundColor=none;spacing=2;spacingBottom=0;" vertex="1" connectable="0" parent="AQsl2rZMWKQkd6-zd7d1-3">
          <mxGeometry x="-0.2071" y="1" relative="1" as="geometry">
            <mxPoint x="16" y="7" as="offset" />
          </mxGeometry>
        </mxCell>
        <mxCell id="AQsl2rZMWKQkd6-zd7d1-5" value="" style="edgeStyle=orthogonalEdgeStyle;rounded=0;orthogonalLoop=1;jettySize=auto;fontSize=15;" edge="1" parent="1" source="AQsl2rZMWKQkd6-zd7d1-18">
          <mxGeometry relative="1" as="geometry">
            <mxPoint x="204" y="290" as="targetPoint" />
            <Array as="points">
              <mxPoint x="140" y="290" />
              <mxPoint x="140" y="290" />
            </Array>
          </mxGeometry>
        </mxCell>
        <mxCell id="AQsl2rZMWKQkd6-zd7d1-6" value="publish&#xa;&#xa;-t &#39;t2&#39; -m &#39;Hi&#39;" style="edgeLabel;align=center;verticalAlign=middle;resizable=0;points=[];fontSize=13;labelBackgroundColor=none;" vertex="1" connectable="0" parent="AQsl2rZMWKQkd6-zd7d1-5">
          <mxGeometry x="0.2214" relative="1" as="geometry">
            <mxPoint x="-13" y="5" as="offset" />
          </mxGeometry>
        </mxCell>
        <mxCell id="7baba1c4bc27f4b0-8" value="Cliente 1" style="shape=umlLifeline;perimeter=lifelinePerimeter;container=1;collapsible=0;recursiveResize=0;outlineConnect=0;rounded=1;shadow=0;comic=0;labelBackgroundColor=none;strokeWidth=1;fontFamily=Verdana;fontSize=12;align=center;perimeterSpacing=1;size=40;fixDash=0;fillColor=default;fontStyle=1" parent="1" vertex="1">
          <mxGeometry x="20" y="80" width="100" height="480" as="geometry" />
        </mxCell>
        <mxCell id="AQsl2rZMWKQkd6-zd7d1-23" value="" style="html=1;points=[];perimeter=orthogonalPerimeter;rounded=0;shadow=0;comic=0;labelBackgroundColor=none;strokeWidth=1;fontFamily=Verdana;fontSize=12;align=center;" vertex="1" parent="7baba1c4bc27f4b0-8">
          <mxGeometry x="45" y="385" width="10" height="15" as="geometry" />
        </mxCell>
        <mxCell id="AQsl2rZMWKQkd6-zd7d1-1" value="Cliente 3&lt;br&gt;" style="shape=umlLifeline;perimeter=lifelinePerimeter;container=1;collapsible=0;recursiveResize=0;outlineConnect=0;rounded=1;shadow=0;comic=0;labelBackgroundColor=none;strokeWidth=1;fontFamily=Verdana;fontSize=12;align=center;fontStyle=1;verticalAlign=middle;html=1;" vertex="1" parent="1">
          <mxGeometry x="440" y="80" width="100" height="480" as="geometry" />
        </mxCell>
        <mxCell id="AQsl2rZMWKQkd6-zd7d1-2" value="" style="html=1;points=[];perimeter=orthogonalPerimeter;rounded=0;shadow=0;comic=0;labelBackgroundColor=none;strokeWidth=1;fontFamily=Verdana;fontSize=12;align=center;" vertex="1" parent="AQsl2rZMWKQkd6-zd7d1-1">
          <mxGeometry x="45" y="290" width="10" height="20" as="geometry" />
        </mxCell>
        <mxCell id="AQsl2rZMWKQkd6-zd7d1-17" value="" style="html=1;points=[];perimeter=orthogonalPerimeter;rounded=0;shadow=0;comic=0;labelBackgroundColor=none;strokeWidth=1;fontFamily=Verdana;fontSize=12;align=center;" vertex="1" parent="AQsl2rZMWKQkd6-zd7d1-1">
          <mxGeometry x="45" y="370" width="10" height="20" as="geometry" />
        </mxCell>
        <mxCell id="AQsl2rZMWKQkd6-zd7d1-9" style="edgeStyle=orthogonalEdgeStyle;rounded=0;orthogonalLoop=1;jettySize=auto;html=1;" edge="1" parent="1" source="7baba1c4bc27f4b0-10">
          <mxGeometry relative="1" as="geometry">
            <mxPoint x="344" y="320" as="targetPoint" />
            <Array as="points">
              <mxPoint x="280" y="320" />
              <mxPoint x="280" y="320" />
            </Array>
          </mxGeometry>
        </mxCell>
        <mxCell id="AQsl2rZMWKQkd6-zd7d1-10" value="publish&#xa;&#xa;-t &#39;t2&#39; -m &#39;Hi&#39;&#xa;" style="edgeLabel;align=center;verticalAlign=middle;resizable=0;points=[];labelBackgroundColor=none;fontSize=13;" vertex="1" connectable="0" parent="AQsl2rZMWKQkd6-zd7d1-9">
          <mxGeometry x="-0.4212" y="-1" relative="1" as="geometry">
            <mxPoint x="26" y="12" as="offset" />
          </mxGeometry>
        </mxCell>
        <mxCell id="AQsl2rZMWKQkd6-zd7d1-11" value="" style="edgeStyle=orthogonalEdgeStyle;rounded=0;orthogonalLoop=1;jettySize=auto;dashed=1;labelBackgroundColor=none;fontSize=13;" edge="1" parent="1" source="AQsl2rZMWKQkd6-zd7d1-1" target="7baba1c4bc27f4b0-2">
          <mxGeometry relative="1" as="geometry">
            <mxPoint x="485" y="230" as="sourcePoint" />
            <mxPoint x="345" y="230" as="targetPoint" />
            <Array as="points">
              <mxPoint x="350" y="240" />
              <mxPoint x="350" y="240" />
            </Array>
          </mxGeometry>
        </mxCell>
        <mxCell id="AQsl2rZMWKQkd6-zd7d1-12" value="subscribe&#xa;&#xa;-t &#39;t2&#39;&#xa;" style="edgeLabel;align=center;verticalAlign=middle;resizable=0;points=[];labelBackgroundColor=none;fontSize=13;" vertex="1" connectable="0" parent="AQsl2rZMWKQkd6-zd7d1-11">
          <mxGeometry x="-0.1328" y="-1" relative="1" as="geometry">
            <mxPoint x="54" y="16" as="offset" />
          </mxGeometry>
        </mxCell>
        <mxCell id="AQsl2rZMWKQkd6-zd7d1-13" style="edgeStyle=orthogonalEdgeStyle;rounded=0;orthogonalLoop=1;jettySize=auto;html=1;" edge="1" parent="1" source="7baba1c4bc27f4b0-10">
          <mxGeometry relative="1" as="geometry">
            <mxPoint x="486" y="380" as="targetPoint" />
            <Array as="points">
              <mxPoint x="350" y="380" />
              <mxPoint x="350" y="380" />
            </Array>
          </mxGeometry>
        </mxCell>
        <mxCell id="AQsl2rZMWKQkd6-zd7d1-15" value="publish&#xa;&#xa;-t &#39;t2&#39; -m &#39;Hi&#39;&#xa;&#xa;&#xa;" style="edgeLabel;align=center;verticalAlign=middle;resizable=0;points=[];labelBackgroundColor=none;fontSize=13;" vertex="1" connectable="0" parent="AQsl2rZMWKQkd6-zd7d1-13">
          <mxGeometry x="0.2951" relative="1" as="geometry">
            <mxPoint x="24" y="29" as="offset" />
          </mxGeometry>
        </mxCell>
        <mxCell id="AQsl2rZMWKQkd6-zd7d1-18" value="" style="html=1;points=[];perimeter=orthogonalPerimeter;rounded=0;shadow=0;comic=0;labelBackgroundColor=none;strokeWidth=1;fontFamily=Verdana;fontSize=12;align=center;" vertex="1" parent="1">
          <mxGeometry x="65" y="280" width="10" height="20" as="geometry" />
        </mxCell>
        <mxCell id="AQsl2rZMWKQkd6-zd7d1-21" style="edgeStyle=orthogonalEdgeStyle;rounded=0;orthogonalLoop=1;jettySize=auto;html=1;" edge="1" parent="1" source="AQsl2rZMWKQkd6-zd7d1-17" target="AQsl2rZMWKQkd6-zd7d1-16">
          <mxGeometry relative="1" as="geometry">
            <Array as="points">
              <mxPoint x="280" y="460" />
              <mxPoint x="280" y="460" />
            </Array>
          </mxGeometry>
        </mxCell>
        <mxCell id="AQsl2rZMWKQkd6-zd7d1-22" value="publish&#xa;&#xa;-t &#39;t1&#39; -m &#39;Buenas&#39;" style="edgeLabel;align=center;verticalAlign=middle;resizable=0;points=[];labelBackgroundColor=none;fontSize=13;" vertex="1" connectable="0" parent="AQsl2rZMWKQkd6-zd7d1-21">
          <mxGeometry x="-0.3859" y="2" relative="1" as="geometry">
            <mxPoint x="12" y="3" as="offset" />
          </mxGeometry>
        </mxCell>
        <mxCell id="AQsl2rZMWKQkd6-zd7d1-24" style="edgeStyle=orthogonalEdgeStyle;rounded=0;orthogonalLoop=1;jettySize=auto;html=1;" edge="1" parent="1" source="AQsl2rZMWKQkd6-zd7d1-16" target="AQsl2rZMWKQkd6-zd7d1-23">
          <mxGeometry relative="1" as="geometry">
            <Array as="points">
              <mxPoint x="140" y="473" />
              <mxPoint x="140" y="473" />
            </Array>
          </mxGeometry>
        </mxCell>
        <mxCell id="AQsl2rZMWKQkd6-zd7d1-25" value="publish&#xa;&#xa;-t &#39;t1&#39; -m &#39;Buenas&#39;" style="edgeLabel;align=center;verticalAlign=middle;resizable=0;points=[];labelBackgroundColor=none;fontSize=13;" vertex="1" connectable="0" parent="AQsl2rZMWKQkd6-zd7d1-24">
          <mxGeometry x="0.0471" y="-2" relative="1" as="geometry">
            <mxPoint x="5" y="7" as="offset" />
          </mxGeometry>
        </mxCell>
        <mxCell id="AQsl2rZMWKQkd6-zd7d1-26" value="MODELO PUB/SUB" style="text;align=center;verticalAlign=middle;resizable=0;points=[];autosize=1;strokeColor=none;fillColor=none;fontStyle=1;fontSize=18;" vertex="1" parent="1">
          <mxGeometry x="180" y="20" width="190" height="40" as="geometry" />
        </mxCell>
        <mxCell id="AQsl2rZMWKQkd6-zd7d1-27" value="MODELO PETICIÃN-RESPUESTA" style="text;align=center;verticalAlign=middle;resizable=0;points=[];autosize=1;strokeColor=none;fillColor=none;fontStyle=1;fontSize=18;" vertex="1" parent="1">
          <mxGeometry x="710" y="20" width="310" height="40" as="geometry" />
        </mxCell>
        <mxCell id="AQsl2rZMWKQkd6-zd7d1-35" style="edgeStyle=orthogonalEdgeStyle;rounded=0;orthogonalLoop=1;jettySize=auto;html=1;entryX=1.282;entryY=0.101;entryDx=0;entryDy=0;entryPerimeter=0;" edge="1" parent="1" source="AQsl2rZMWKQkd6-zd7d1-29" target="7baba1c4bc27f4b0-19">
          <mxGeometry relative="1" as="geometry">
            <Array as="points">
              <mxPoint x="840" y="171" />
              <mxPoint x="840" y="171" />
            </Array>
          </mxGeometry>
        </mxCell>
        <mxCell id="AQsl2rZMWKQkd6-zd7d1-36" value="request&#xa;&#xa;&#39;saludo1&#39;&#xa;" style="edgeLabel;align=center;verticalAlign=middle;resizable=0;points=[];fontSize=13;labelBackgroundColor=none;" vertex="1" connectable="0" parent="AQsl2rZMWKQkd6-zd7d1-35">
          <mxGeometry x="-0.2723" y="3" relative="1" as="geometry">
            <mxPoint x="-19" y="11" as="offset" />
          </mxGeometry>
        </mxCell>
        <mxCell id="AQsl2rZMWKQkd6-zd7d1-37" style="edgeStyle=orthogonalEdgeStyle;rounded=0;orthogonalLoop=1;jettySize=auto;html=1;entryX=-0.264;entryY=0.729;entryDx=0;entryDy=0;entryPerimeter=0;" edge="1" parent="1" source="7baba1c4bc27f4b0-19" target="AQsl2rZMWKQkd6-zd7d1-29">
          <mxGeometry relative="1" as="geometry">
            <Array as="points">
              <mxPoint x="760" y="240" />
              <mxPoint x="760" y="240" />
            </Array>
          </mxGeometry>
        </mxCell>
        <mxCell id="AQsl2rZMWKQkd6-zd7d1-38" value="response&#xa;&#xa;&#39;Hi&#39;&#xa;" style="edgeLabel;align=center;verticalAlign=middle;resizable=0;points=[];labelBackgroundColor=none;fontSize=13;" vertex="1" connectable="0" parent="AQsl2rZMWKQkd6-zd7d1-37">
          <mxGeometry x="0.0436" relative="1" as="geometry">
            <mxPoint x="-1" y="14" as="offset" />
          </mxGeometry>
        </mxCell>
        <mxCell id="AQsl2rZMWKQkd6-zd7d1-41" style="edgeStyle=orthogonalEdgeStyle;rounded=0;orthogonalLoop=1;jettySize=auto;html=1;entryX=0.907;entryY=0.088;entryDx=0;entryDy=0;entryPerimeter=0;exitX=0.017;exitY=0.179;exitDx=0;exitDy=0;exitPerimeter=0;" edge="1" parent="1" source="AQsl2rZMWKQkd6-zd7d1-39" target="AQsl2rZMWKQkd6-zd7d1-40">
          <mxGeometry relative="1" as="geometry">
            <mxPoint x="860" y="300" as="sourcePoint" />
            <mxPoint x="740" y="300" as="targetPoint" />
            <Array as="points" />
          </mxGeometry>
        </mxCell>
        <mxCell id="AQsl2rZMWKQkd6-zd7d1-42" value="request&#xa;&#xa;&#39;saludo1&#39;&#xa;" style="edgeLabel;align=center;verticalAlign=middle;resizable=0;points=[];fontSize=13;labelBackgroundColor=none;" vertex="1" connectable="0" parent="AQsl2rZMWKQkd6-zd7d1-41">
          <mxGeometry x="-0.2723" y="3" relative="1" as="geometry">
            <mxPoint x="33" y="13" as="offset" />
          </mxGeometry>
        </mxCell>
        <mxCell id="AQsl2rZMWKQkd6-zd7d1-43" style="edgeStyle=orthogonalEdgeStyle;rounded=0;orthogonalLoop=1;jettySize=auto;html=1;exitX=1.07;exitY=0.727;exitDx=0;exitDy=0;exitPerimeter=0;" edge="1" parent="1" source="AQsl2rZMWKQkd6-zd7d1-40" target="AQsl2rZMWKQkd6-zd7d1-39">
          <mxGeometry relative="1" as="geometry">
            <mxPoint x="750" y="370" as="sourcePoint" />
            <mxPoint x="857" y="369" as="targetPoint" />
            <Array as="points">
              <mxPoint x="880" y="370" />
              <mxPoint x="880" y="370" />
            </Array>
          </mxGeometry>
        </mxCell>
        <mxCell id="AQsl2rZMWKQkd6-zd7d1-44" value="response&#xa;&#xa;&#39;Hi&#39;&#xa;" style="edgeLabel;align=center;verticalAlign=middle;resizable=0;points=[];labelBackgroundColor=none;fontSize=13;" vertex="1" connectable="0" parent="AQsl2rZMWKQkd6-zd7d1-43">
          <mxGeometry x="0.0436" relative="1" as="geometry">
            <mxPoint x="69" y="13" as="offset" />
          </mxGeometry>
        </mxCell>
        <mxCell id="AQsl2rZMWKQkd6-zd7d1-48" style="edgeStyle=orthogonalEdgeStyle;rounded=0;orthogonalLoop=1;jettySize=auto;html=1;entryX=-0.031;entryY=0.152;entryDx=0;entryDy=0;entryPerimeter=0;" edge="1" parent="1" source="AQsl2rZMWKQkd6-zd7d1-45" target="AQsl2rZMWKQkd6-zd7d1-46">
          <mxGeometry relative="1" as="geometry">
            <Array as="points">
              <mxPoint x="800" y="457" />
              <mxPoint x="800" y="457" />
            </Array>
          </mxGeometry>
        </mxCell>
        <mxCell id="AQsl2rZMWKQkd6-zd7d1-49" value="request&#xa;&#xa;&#39;saludo2&#39;&#xa;" style="edgeLabel;align=center;verticalAlign=middle;resizable=0;points=[];labelBackgroundColor=none;fontSize=13;" vertex="1" connectable="0" parent="AQsl2rZMWKQkd6-zd7d1-48">
          <mxGeometry x="0.2869" y="-2" relative="1" as="geometry">
            <mxPoint x="-111" y="13" as="offset" />
          </mxGeometry>
        </mxCell>
        <mxCell id="AQsl2rZMWKQkd6-zd7d1-50" style="edgeStyle=orthogonalEdgeStyle;rounded=0;orthogonalLoop=1;jettySize=auto;html=1;entryX=1.123;entryY=0.845;entryDx=0;entryDy=0;entryPerimeter=0;" edge="1" parent="1" source="AQsl2rZMWKQkd6-zd7d1-46" target="AQsl2rZMWKQkd6-zd7d1-45">
          <mxGeometry relative="1" as="geometry">
            <Array as="points">
              <mxPoint x="930" y="533" />
              <mxPoint x="930" y="533" />
            </Array>
          </mxGeometry>
        </mxCell>
        <mxCell id="AQsl2rZMWKQkd6-zd7d1-51" value="response&#xa;&#xa;&#39;Buenas&#39;&#xa;" style="edgeLabel;align=center;verticalAlign=middle;resizable=0;points=[];fontSize=13;labelBackgroundColor=none;" vertex="1" connectable="0" parent="AQsl2rZMWKQkd6-zd7d1-50">
          <mxGeometry x="-0.2708" y="1" relative="1" as="geometry">
            <mxPoint x="-108" y="12" as="offset" />
          </mxGeometry>
        </mxCell>
        <mxCell id="AQsl2rZMWKQkd6-zd7d1-52" value="VS" style="text;align=center;verticalAlign=middle;resizable=0;points=[];autosize=1;strokeColor=none;fillColor=none;fontStyle=1;fontSize=27;" vertex="1" parent="1">
          <mxGeometry x="575" y="295" width="60" height="50" as="geometry" />
        </mxCell>
      </root>
    </mxGraphModel>
  </diagram>
</mxfile>
